<mxfile host="app.diagrams.net" modified="2021-07-02T05:52:20.818Z" agent="5.0 (Macintosh; Intel Mac OS X 10_15_7) AppleWebKit/537.36 (KHTML, like Gecko) Chrome/91.0.4472.114 Safari/537.36" etag="jlY4x0tIeDbjkqLjNYfG" version="14.8.3" type="github">
  <diagram id="-QrNeAgoNjp3CSnFdmaU" name="Page-1">
    <mxGraphModel dx="946" dy="546" grid="1" gridSize="10" guides="1" tooltips="1" connect="1" arrows="1" fold="1" page="1" pageScale="1" pageWidth="827" pageHeight="1169" math="0" shadow="0">
      <root>
        <mxCell id="0" />
        <mxCell id="1" parent="0" />
        <mxCell id="5h1_BoHeQ75gXlJnf-YZ-1" value="ldap主" style="rounded=0;whiteSpace=wrap;html=1;strokeWidth=3;fillColor=#ffff88;strokeColor=#36393d;" vertex="1" parent="1">
          <mxGeometry x="35" y="1360" width="355" height="550" as="geometry" />
        </mxCell>
        <mxCell id="5h1_BoHeQ75gXlJnf-YZ-2" value="" style="rounded=0;whiteSpace=wrap;html=1;strokeWidth=3;" vertex="1" parent="1">
          <mxGeometry x="445" y="90" width="340" height="560" as="geometry" />
        </mxCell>
        <mxCell id="5h1_BoHeQ75gXlJnf-YZ-3" value="" style="rounded=0;whiteSpace=wrap;html=1;strokeWidth=3;" vertex="1" parent="1">
          <mxGeometry x="35" y="90" width="350" height="560" as="geometry" />
        </mxCell>
        <mxCell id="5h1_BoHeQ75gXlJnf-YZ-4" value="" style="rounded=1;whiteSpace=wrap;html=1;dashed=1;" vertex="1" parent="1">
          <mxGeometry x="460" y="110" width="300" height="80" as="geometry" />
        </mxCell>
        <mxCell id="5h1_BoHeQ75gXlJnf-YZ-5" value="" style="rounded=1;whiteSpace=wrap;html=1;dashed=1;" vertex="1" parent="1">
          <mxGeometry x="60" y="120" width="300" height="80" as="geometry" />
        </mxCell>
        <mxCell id="5h1_BoHeQ75gXlJnf-YZ-6" value="nsq消息队列(主)" style="rounded=1;whiteSpace=wrap;html=1;fillColor=#e51400;strokeColor=#B20000;fontColor=#ffffff;" vertex="1" parent="1">
          <mxGeometry x="230" y="460" width="120" height="60" as="geometry" />
        </mxCell>
        <mxCell id="5h1_BoHeQ75gXlJnf-YZ-7" value="Nginx(互为主备,冷备切换)" style="rounded=1;whiteSpace=wrap;html=1;fillColor=#e51400;strokeColor=#B20000;fontColor=#ffffff;" vertex="1" parent="1">
          <mxGeometry x="77.5" y="130" width="135" height="60" as="geometry" />
        </mxCell>
        <mxCell id="5h1_BoHeQ75gXlJnf-YZ-8" value="Nginx（互为主备,冷备切换）" style="rounded=1;whiteSpace=wrap;html=1;" vertex="1" parent="1">
          <mxGeometry x="480" y="120" width="120" height="60" as="geometry" />
        </mxCell>
        <mxCell id="5h1_BoHeQ75gXlJnf-YZ-9" value="Freeradius(主)" style="rounded=1;whiteSpace=wrap;html=1;" vertex="1" parent="1">
          <mxGeometry x="230" y="130" width="120" height="60" as="geometry" />
        </mxCell>
        <mxCell id="5h1_BoHeQ75gXlJnf-YZ-10" value="Freeradius(备)" style="rounded=1;whiteSpace=wrap;html=1;" vertex="1" parent="1">
          <mxGeometry x="630" y="120" width="120" height="60" as="geometry" />
        </mxCell>
        <mxCell id="5h1_BoHeQ75gXlJnf-YZ-11" value="Redis(从)" style="rounded=1;whiteSpace=wrap;html=1;fillColor=#ffff88;strokeColor=#36393d;" vertex="1" parent="1">
          <mxGeometry x="480" y="442.5" width="120" height="40" as="geometry" />
        </mxCell>
        <mxCell id="5h1_BoHeQ75gXlJnf-YZ-12" value="内网仓库(主)" style="rounded=1;whiteSpace=wrap;html=1;" vertex="1" parent="1">
          <mxGeometry x="70" y="565" width="120" height="60" as="geometry" />
        </mxCell>
        <mxCell id="5h1_BoHeQ75gXlJnf-YZ-13" value="内网商店(主)" style="rounded=1;whiteSpace=wrap;html=1;" vertex="1" parent="1">
          <mxGeometry x="230" y="565" width="120" height="60" as="geometry" />
        </mxCell>
        <mxCell id="5h1_BoHeQ75gXlJnf-YZ-14" value="内网仓库(备)" style="rounded=1;whiteSpace=wrap;html=1;" vertex="1" parent="1">
          <mxGeometry x="480" y="565" width="120" height="60" as="geometry" />
        </mxCell>
        <mxCell id="5h1_BoHeQ75gXlJnf-YZ-15" value="内网商店(备)" style="rounded=1;whiteSpace=wrap;html=1;fillColor=#e51400;strokeColor=#B20000;fontColor=#ffffff;" vertex="1" parent="1">
          <mxGeometry x="630" y="565" width="120" height="60" as="geometry" />
        </mxCell>
        <mxCell id="5h1_BoHeQ75gXlJnf-YZ-16" value="&lt;font color=&quot;#FF3617&quot;&gt;新申请物理终端CNA3(用于mysql数据库主库,&lt;/font&gt;&lt;span style=&quot;color: rgb(255 , 54 , 23)&quot;&gt;从原物理机CNA1进行迁移&lt;/span&gt;&lt;font color=&quot;#FF3617&quot;&gt;)&lt;/font&gt;" style="text;html=1;align=center;verticalAlign=middle;resizable=0;points=[];autosize=1;strokeColor=none;" vertex="1" parent="1">
          <mxGeometry x="10" y="690" width="400" height="20" as="geometry" />
        </mxCell>
        <mxCell id="5h1_BoHeQ75gXlJnf-YZ-17" value="&lt;font color=&quot;#FF3617&quot;&gt;原物理终端CNA1(7台虚拟机,摘除主库虚拟机分离独立&lt;br&gt;redis数据服务、nsq队列服务)&lt;/font&gt;" style="text;html=1;align=center;verticalAlign=middle;resizable=0;points=[];autosize=1;strokeColor=none;" vertex="1" parent="1">
          <mxGeometry x="70" y="40" width="300" height="30" as="geometry" />
        </mxCell>
        <mxCell id="5h1_BoHeQ75gXlJnf-YZ-18" value="&lt;font color=&quot;#FF3617&quot;&gt;原物理终端CNA2(8台虚拟机,新增内网商店备用服务;&lt;/font&gt;&lt;span style=&quot;color: rgb(255 , 54 , 23)&quot;&gt;分离独立&lt;/span&gt;&lt;br style=&quot;color: rgb(255 , 54 , 23)&quot;&gt;&lt;span style=&quot;color: rgb(255 , 54 , 23)&quot;&gt;redis数据服务、nsq队列服务&lt;/span&gt;&lt;font color=&quot;#FF3617&quot;&gt;)&lt;/font&gt;" style="text;html=1;align=center;verticalAlign=middle;resizable=0;points=[];autosize=1;strokeColor=none;" vertex="1" parent="1">
          <mxGeometry x="444" y="40" width="340" height="30" as="geometry" />
        </mxCell>
        <mxCell id="5h1_BoHeQ75gXlJnf-YZ-19" value="Redis(主)" style="rounded=1;whiteSpace=wrap;html=1;fillColor=#ffff88;strokeColor=#36393d;" vertex="1" parent="1">
          <mxGeometry x="70" y="460" width="120" height="60" as="geometry" />
        </mxCell>
        <mxCell id="5h1_BoHeQ75gXlJnf-YZ-20" value="Docker Swarm(管控主)" style="html=1;rounded=1;dashed=1;fillColor=none;gradientColor=none;" vertex="1" parent="1">
          <mxGeometry x="55" y="210" width="300" height="220" as="geometry" />
        </mxCell>
        <mxCell id="5h1_BoHeQ75gXlJnf-YZ-21" value="" style="rounded=0;whiteSpace=wrap;html=1;strokeWidth=3;" vertex="1" parent="1">
          <mxGeometry x="450" y="720" width="335" height="560" as="geometry" />
        </mxCell>
        <mxCell id="5h1_BoHeQ75gXlJnf-YZ-22" value="&lt;font color=&quot;#FF3617&quot;&gt;新申请物理终端CNA4(5台虚拟机,用于mysql、ldap从库服务&lt;br&gt;&lt;/font&gt;&lt;span style=&quot;color: rgb(255 , 54 , 23)&quot;&gt;分别从原物理机CNA1进行迁移&lt;/span&gt;&lt;font color=&quot;#FF3617&quot;&gt;)&lt;/font&gt;" style="text;html=1;align=center;verticalAlign=middle;resizable=0;points=[];autosize=1;strokeColor=none;" vertex="1" parent="1">
          <mxGeometry x="450" y="685" width="330" height="30" as="geometry" />
        </mxCell>
        <mxCell id="5h1_BoHeQ75gXlJnf-YZ-23" value="" style="html=1;dashed=1;rounded=1;fillColor=none;" vertex="1" parent="1">
          <mxGeometry x="60" y="442.5" width="140" height="95" as="geometry" />
        </mxCell>
        <mxCell id="5h1_BoHeQ75gXlJnf-YZ-24" value="" style="html=1;dashed=1;rounded=1;fillColor=none;" vertex="1" parent="1">
          <mxGeometry x="60" y="547.5" width="140" height="95" as="geometry" />
        </mxCell>
        <mxCell id="5h1_BoHeQ75gXlJnf-YZ-25" value="" style="html=1;dashed=1;rounded=1;fillColor=none;" vertex="1" parent="1">
          <mxGeometry x="220" y="547.5" width="140" height="95" as="geometry" />
        </mxCell>
        <mxCell id="5h1_BoHeQ75gXlJnf-YZ-26" value="" style="html=1;dashed=1;rounded=1;fillColor=none;" vertex="1" parent="1">
          <mxGeometry x="470" y="547.5" width="140" height="95" as="geometry" />
        </mxCell>
        <mxCell id="5h1_BoHeQ75gXlJnf-YZ-27" value="mysql(从)" style="rounded=1;whiteSpace=wrap;html=1;fillColor=#ffff88;strokeColor=#36393d;" vertex="1" parent="1">
          <mxGeometry x="515" y="800" width="200" height="110" as="geometry" />
        </mxCell>
        <mxCell id="5h1_BoHeQ75gXlJnf-YZ-28" value="&lt;span style=&quot;color: rgb(255 , 54 , 23)&quot;&gt;新申请物理终端CNA5(3台虚拟机,分设3台虚拟机;&lt;/span&gt;&lt;br style=&quot;color: rgb(255 , 54 , 23)&quot;&gt;&lt;span style=&quot;color: rgb(255 , 54 , 23)&quot;&gt;用于ldap主库、从库服务分别从原物理机CNA1进行迁移)&lt;/span&gt;" style="text;html=1;align=center;verticalAlign=middle;resizable=0;points=[];autosize=1;strokeColor=none;" vertex="1" parent="1">
          <mxGeometry x="65" y="1315" width="310" height="30" as="geometry" />
        </mxCell>
        <mxCell id="5h1_BoHeQ75gXlJnf-YZ-29" value="" style="rounded=0;whiteSpace=wrap;html=1;strokeWidth=3;" vertex="1" parent="1">
          <mxGeometry x="460" y="1355" width="340" height="560" as="geometry" />
        </mxCell>
        <mxCell id="5h1_BoHeQ75gXlJnf-YZ-30" value="" style="html=1;dashed=1;rounded=1;fillColor=none;" vertex="1" parent="1">
          <mxGeometry x="619" y="547.5" width="140" height="95" as="geometry" />
        </mxCell>
        <mxCell id="5h1_BoHeQ75gXlJnf-YZ-31" value="nsq消息队列(备)" style="rounded=1;whiteSpace=wrap;html=1;fillColor=#e51400;strokeColor=#B20000;fontColor=#ffffff;" vertex="1" parent="1">
          <mxGeometry x="630" y="460" width="120" height="60" as="geometry" />
        </mxCell>
        <mxCell id="5h1_BoHeQ75gXlJnf-YZ-32" value="" style="html=1;dashed=1;rounded=1;fillColor=none;" vertex="1" parent="1">
          <mxGeometry x="217.5" y="440" width="140" height="95" as="geometry" />
        </mxCell>
        <mxCell id="5h1_BoHeQ75gXlJnf-YZ-33" value="" style="html=1;dashed=1;rounded=1;fillColor=none;" vertex="1" parent="1">
          <mxGeometry x="620" y="442.5" width="140" height="95" as="geometry" />
        </mxCell>
        <mxCell id="5h1_BoHeQ75gXlJnf-YZ-34" value="web接口服务" style="rounded=0;whiteSpace=wrap;html=1;strokeColor=#36393d;fillColor=#f9f7ed;" vertex="1" parent="1">
          <mxGeometry x="70" y="240" width="80" height="60" as="geometry" />
        </mxCell>
        <mxCell id="5h1_BoHeQ75gXlJnf-YZ-35" value="client接口服务" style="rounded=0;whiteSpace=wrap;html=1;strokeColor=#36393d;fillColor=#eeeeee;" vertex="1" parent="1">
          <mxGeometry x="165" y="240" width="85" height="60" as="geometry" />
        </mxCell>
        <mxCell id="5h1_BoHeQ75gXlJnf-YZ-36" value="msg转发服务" style="rounded=0;whiteSpace=wrap;html=1;strokeColor=#36393d;fillColor=#ffcc99;" vertex="1" parent="1">
          <mxGeometry x="242.5" y="340" width="100" height="60" as="geometry" />
        </mxCell>
        <mxCell id="5h1_BoHeQ75gXlJnf-YZ-37" value="web管控服务" style="rounded=0;whiteSpace=wrap;html=1;strokeColor=#36393d;fillColor=#cdeb8b;" vertex="1" parent="1">
          <mxGeometry x="70" y="340" width="100" height="60" as="geometry" />
        </mxCell>
        <mxCell id="5h1_BoHeQ75gXlJnf-YZ-38" value="notify消息服务" style="rounded=0;whiteSpace=wrap;html=1;strokeColor=#d6b656;fillColor=#fff2cc;" vertex="1" parent="1">
          <mxGeometry x="260" y="240" width="82.5" height="60" as="geometry" />
        </mxCell>
        <mxCell id="5h1_BoHeQ75gXlJnf-YZ-39" value="web接口服务" style="rounded=0;whiteSpace=wrap;html=1;strokeColor=#36393d;fillColor=#f9f7ed;" vertex="1" parent="1">
          <mxGeometry x="480" y="240" width="80" height="60" as="geometry" />
        </mxCell>
        <mxCell id="5h1_BoHeQ75gXlJnf-YZ-40" value="client接口服务" style="rounded=0;whiteSpace=wrap;html=1;strokeColor=#36393d;fillColor=#eeeeee;" vertex="1" parent="1">
          <mxGeometry x="571.5" y="240" width="85" height="60" as="geometry" />
        </mxCell>
        <mxCell id="5h1_BoHeQ75gXlJnf-YZ-41" value="Docker Swarm(管控备)" style="html=1;rounded=1;dashed=1;fillColor=none;gradientColor=none;" vertex="1" parent="1">
          <mxGeometry x="464" y="210" width="300" height="220" as="geometry" />
        </mxCell>
        <mxCell id="5h1_BoHeQ75gXlJnf-YZ-42" value="notify消息服务" style="rounded=0;whiteSpace=wrap;html=1;strokeColor=#d6b656;fillColor=#fff2cc;" vertex="1" parent="1">
          <mxGeometry x="667.5" y="240" width="82.5" height="60" as="geometry" />
        </mxCell>
        <mxCell id="5h1_BoHeQ75gXlJnf-YZ-43" value="web管控服务" style="rounded=0;whiteSpace=wrap;html=1;strokeColor=#36393d;fillColor=#cdeb8b;" vertex="1" parent="1">
          <mxGeometry x="480" y="350" width="100" height="60" as="geometry" />
        </mxCell>
        <mxCell id="5h1_BoHeQ75gXlJnf-YZ-44" value="msg转发服务" style="rounded=0;whiteSpace=wrap;html=1;strokeColor=#36393d;fillColor=#ffcc99;" vertex="1" parent="1">
          <mxGeometry x="650" y="350" width="100" height="60" as="geometry" />
        </mxCell>
        <mxCell id="5h1_BoHeQ75gXlJnf-YZ-45" value="Redis(从)" style="rounded=1;whiteSpace=wrap;html=1;fillColor=#ffff88;strokeColor=#36393d;" vertex="1" parent="1">
          <mxGeometry x="480" y="497.5" width="120" height="40" as="geometry" />
        </mxCell>
        <mxCell id="5h1_BoHeQ75gXlJnf-YZ-46" value="" style="html=1;dashed=1;rounded=1;fillColor=none;" vertex="1" parent="1">
          <mxGeometry x="470" y="437.5" width="140" height="50" as="geometry" />
        </mxCell>
        <mxCell id="5h1_BoHeQ75gXlJnf-YZ-47" value="" style="html=1;dashed=1;rounded=1;fillColor=none;" vertex="1" parent="1">
          <mxGeometry x="470" y="492.5" width="140" height="50" as="geometry" />
        </mxCell>
        <mxCell id="5h1_BoHeQ75gXlJnf-YZ-48" value="mysql主" style="rounded=0;whiteSpace=wrap;html=1;strokeWidth=3;fontStyle=1;fillColor=#ffff88;strokeColor=#36393d;" vertex="1" parent="1">
          <mxGeometry x="42.5" y="720" width="340" height="560" as="geometry" />
        </mxCell>
        <mxCell id="5h1_BoHeQ75gXlJnf-YZ-49" value="" style="html=1;dashed=1;rounded=1;fillColor=none;" vertex="1" parent="1">
          <mxGeometry x="477.5" y="780" width="280" height="150" as="geometry" />
        </mxCell>
        <mxCell id="5h1_BoHeQ75gXlJnf-YZ-50" value="ldap（从）" style="rounded=0;whiteSpace=wrap;html=1;strokeColor=#36393d;fillColor=#ffff88;" vertex="1" parent="1">
          <mxGeometry x="487.5" y="1522.5" width="120" height="60" as="geometry" />
        </mxCell>
        <mxCell id="5h1_BoHeQ75gXlJnf-YZ-51" value="&lt;span&gt;ldap（从）&lt;/span&gt;" style="rounded=0;whiteSpace=wrap;html=1;strokeColor=#36393d;fillColor=#ffff88;" vertex="1" parent="1">
          <mxGeometry x="660" y="1530" width="120" height="60" as="geometry" />
        </mxCell>
        <mxCell id="5h1_BoHeQ75gXlJnf-YZ-52" value="ldap（从）" style="rounded=0;whiteSpace=wrap;html=1;strokeColor=#36393d;fillColor=#ffff88;" vertex="1" parent="1">
          <mxGeometry x="484" y="1407.5" width="120" height="60" as="geometry" />
        </mxCell>
        <mxCell id="5h1_BoHeQ75gXlJnf-YZ-53" value="ldap（从）" style="rounded=0;whiteSpace=wrap;html=1;strokeColor=#36393d;fillColor=#ffff88;" vertex="1" parent="1">
          <mxGeometry x="656.5" y="1407.5" width="120" height="60" as="geometry" />
        </mxCell>
        <mxCell id="5h1_BoHeQ75gXlJnf-YZ-54" value="" style="html=1;dashed=1;rounded=1;fillColor=none;" vertex="1" parent="1">
          <mxGeometry x="474" y="1500" width="140" height="105" as="geometry" />
        </mxCell>
        <mxCell id="5h1_BoHeQ75gXlJnf-YZ-55" value="" style="html=1;dashed=1;rounded=1;fillColor=none;" vertex="1" parent="1">
          <mxGeometry x="646.5" y="1510" width="140" height="95" as="geometry" />
        </mxCell>
        <mxCell id="5h1_BoHeQ75gXlJnf-YZ-56" value="" style="html=1;dashed=1;rounded=1;fillColor=none;" vertex="1" parent="1">
          <mxGeometry x="474" y="1390" width="140" height="95" as="geometry" />
        </mxCell>
        <mxCell id="5h1_BoHeQ75gXlJnf-YZ-57" value="" style="html=1;dashed=1;rounded=1;fillColor=none;" vertex="1" parent="1">
          <mxGeometry x="646.5" y="1390" width="140" height="95" as="geometry" />
        </mxCell>
        <mxCell id="5h1_BoHeQ75gXlJnf-YZ-58" value="" style="html=1;dashed=1;rounded=1;fillColor=none;" vertex="1" parent="1">
          <mxGeometry x="474" y="1090" width="280" height="150" as="geometry" />
        </mxCell>
        <mxCell id="5h1_BoHeQ75gXlJnf-YZ-59" value="mysql(从)" style="rounded=1;whiteSpace=wrap;html=1;fillColor=#ffff88;strokeColor=#36393d;" vertex="1" parent="1">
          <mxGeometry x="517.5" y="1110" width="200" height="110" as="geometry" />
        </mxCell>
        <mxCell id="5h1_BoHeQ75gXlJnf-YZ-60" value="&lt;span style=&quot;color: rgb(255 , 54 , 23)&quot;&gt;新申请物理终端CNA6&lt;/span&gt;&lt;span style=&quot;color: rgb(255 , 54 , 23)&quot;&gt;(5台虚拟机,用于mysql、ldap从库服务&lt;br&gt;&lt;/span&gt;&lt;span style=&quot;color: rgb(255 , 54 , 23)&quot;&gt;分别从原物理机CNA1进行迁移&lt;/span&gt;&lt;span style=&quot;color: rgb(255 , 54 , 23)&quot;&gt;)&lt;/span&gt;" style="text;html=1;align=center;verticalAlign=middle;resizable=0;points=[];autosize=1;strokeColor=none;" vertex="1" parent="1">
          <mxGeometry x="465" y="1310" width="330" height="30" as="geometry" />
        </mxCell>
        <mxCell id="5h1_BoHeQ75gXlJnf-YZ-61" value="" style="html=1;dashed=1;rounded=1;fillColor=none;" vertex="1" parent="1">
          <mxGeometry x="480" y="1650" width="140" height="97.5" as="geometry" />
        </mxCell>
        <mxCell id="5h1_BoHeQ75gXlJnf-YZ-62" value="ldap（从）" style="rounded=0;whiteSpace=wrap;html=1;strokeColor=#36393d;fillColor=#ffff88;" vertex="1" parent="1">
          <mxGeometry x="490" y="1670" width="120" height="60" as="geometry" />
        </mxCell>
        <mxCell id="5h1_BoHeQ75gXlJnf-YZ-63" value="" style="html=1;dashed=1;rounded=1;fillColor=none;" vertex="1" parent="1">
          <mxGeometry x="484" y="1760" width="140" height="95" as="geometry" />
        </mxCell>
        <mxCell id="5h1_BoHeQ75gXlJnf-YZ-64" value="ldap（从）" style="rounded=0;whiteSpace=wrap;html=1;strokeColor=#36393d;fillColor=#ffff88;" vertex="1" parent="1">
          <mxGeometry x="494" y="1777.5" width="120" height="60" as="geometry" />
        </mxCell>
        <mxCell id="5h1_BoHeQ75gXlJnf-YZ-65" value="" style="html=1;dashed=1;rounded=1;fillColor=none;" vertex="1" parent="1">
          <mxGeometry x="646.5" y="1652.5" width="140" height="95" as="geometry" />
        </mxCell>
        <mxCell id="5h1_BoHeQ75gXlJnf-YZ-66" value="ldap（从）" style="rounded=0;whiteSpace=wrap;html=1;strokeColor=#36393d;fillColor=#ffff88;" vertex="1" parent="1">
          <mxGeometry x="656.5" y="1670" width="120" height="60" as="geometry" />
        </mxCell>
        <mxCell id="5h1_BoHeQ75gXlJnf-YZ-67" value="" style="html=1;dashed=1;rounded=1;fillColor=none;" vertex="1" parent="1">
          <mxGeometry x="645" y="1760" width="140" height="95" as="geometry" />
        </mxCell>
        <mxCell id="5h1_BoHeQ75gXlJnf-YZ-68" value="ldap（从）" style="rounded=0;whiteSpace=wrap;html=1;strokeColor=#36393d;fillColor=#ffff88;" vertex="1" parent="1">
          <mxGeometry x="656.5" y="1777.5" width="120" height="60" as="geometry" />
        </mxCell>
        <mxCell id="5h1_BoHeQ75gXlJnf-YZ-69" value="&lt;span style=&quot;color: rgb(255 , 54 , 23)&quot;&gt;新申请物理终端CNA7&lt;/span&gt;&lt;span style=&quot;color: rgb(255 , 54 , 23)&quot;&gt;(2台虚拟机,用于日志服务存储及数据快照备份服务&lt;/span&gt;&lt;span style=&quot;color: rgb(255 , 54 , 23)&quot;&gt;)&lt;/span&gt;" style="text;html=1;align=center;verticalAlign=middle;resizable=0;points=[];autosize=1;strokeColor=none;" vertex="1" parent="1">
          <mxGeometry x="17.5" y="1965" width="400" height="20" as="geometry" />
        </mxCell>
        <mxCell id="5h1_BoHeQ75gXlJnf-YZ-70" value="" style="rounded=0;whiteSpace=wrap;html=1;strokeWidth=3;fontColor=#ffffff;fillColor=#FFFFFF;strokeColor=#1A3300;" vertex="1" parent="1">
          <mxGeometry x="27.5" y="2010" width="355" height="550" as="geometry" />
        </mxCell>
        <mxCell id="5h1_BoHeQ75gXlJnf-YZ-71" value="日志存储(主)" style="rounded=0;whiteSpace=wrap;html=1;strokeColor=#B20000;fillColor=#e51400;fontColor=#ffffff;" vertex="1" parent="1">
          <mxGeometry x="121" y="2090" width="168" height="130" as="geometry" />
        </mxCell>
        <mxCell id="5h1_BoHeQ75gXlJnf-YZ-72" value="数据备份(主)" style="rounded=0;whiteSpace=wrap;html=1;strokeColor=#314354;fillColor=#647687;fontColor=#ffffff;" vertex="1" parent="1">
          <mxGeometry x="116" y="2370" width="168" height="130" as="geometry" />
        </mxCell>
        <mxCell id="5h1_BoHeQ75gXlJnf-YZ-73" value="" style="html=1;dashed=1;rounded=1;fillColor=none;" vertex="1" parent="1">
          <mxGeometry x="47.5" y="2070" width="295" height="170" as="geometry" />
        </mxCell>
        <mxCell id="5h1_BoHeQ75gXlJnf-YZ-74" value="" style="html=1;dashed=1;rounded=1;fillColor=none;" vertex="1" parent="1">
          <mxGeometry x="52.5" y="2350" width="295" height="170" as="geometry" />
        </mxCell>
        <mxCell id="5h1_BoHeQ75gXlJnf-YZ-75" value="&lt;span style=&quot;color: rgb(255 , 54 , 23)&quot;&gt;新申请物理终端CNA8&lt;/span&gt;&lt;span style=&quot;color: rgb(255 , 54 , 23)&quot;&gt;(2台虚拟机,用于日志服务存储及数据快照备份服务&lt;/span&gt;&lt;span style=&quot;color: rgb(255 , 54 , 23)&quot;&gt;)&lt;/span&gt;" style="text;html=1;align=center;verticalAlign=middle;resizable=0;points=[];autosize=1;strokeColor=none;" vertex="1" parent="1">
          <mxGeometry x="444" y="1965" width="400" height="20" as="geometry" />
        </mxCell>
        <mxCell id="5h1_BoHeQ75gXlJnf-YZ-76" value="" style="rounded=0;whiteSpace=wrap;html=1;strokeWidth=3;fontColor=#ffffff;fillColor=#FFFFFF;strokeColor=#1A3300;" vertex="1" parent="1">
          <mxGeometry x="459" y="2010" width="355" height="550" as="geometry" />
        </mxCell>
        <mxCell id="5h1_BoHeQ75gXlJnf-YZ-77" value="" style="html=1;dashed=1;rounded=1;fillColor=none;" vertex="1" parent="1">
          <mxGeometry x="490" y="2070" width="295" height="170" as="geometry" />
        </mxCell>
        <mxCell id="5h1_BoHeQ75gXlJnf-YZ-78" value="日志存储(备)" style="rounded=0;whiteSpace=wrap;html=1;strokeColor=#B20000;fillColor=#e51400;fontColor=#ffffff;" vertex="1" parent="1">
          <mxGeometry x="562" y="2090" width="168" height="130" as="geometry" />
        </mxCell>
        <mxCell id="5h1_BoHeQ75gXlJnf-YZ-79" value="" style="html=1;dashed=1;rounded=1;fillColor=none;" vertex="1" parent="1">
          <mxGeometry x="490" y="2350" width="295" height="170" as="geometry" />
        </mxCell>
        <mxCell id="5h1_BoHeQ75gXlJnf-YZ-80" value="数据备份(备)" style="rounded=0;whiteSpace=wrap;html=1;strokeColor=#314354;fillColor=#647687;fontColor=#ffffff;" vertex="1" parent="1">
          <mxGeometry x="560" y="2370" width="168" height="130" as="geometry" />
        </mxCell>
        <mxCell id="5h1_BoHeQ75gXlJnf-YZ-81" value="&lt;font style=&quot;font-size: 42px&quot;&gt;园区A&lt;/font&gt;" style="html=1;dashed=1;rounded=1;fillColor=none;strokeColor=#858585;strokeWidth=3;" vertex="1" parent="1">
          <mxGeometry x="10" y="25" width="400" height="2610" as="geometry" />
        </mxCell>
        <mxCell id="5h1_BoHeQ75gXlJnf-YZ-82" value="&lt;font style=&quot;font-size: 42px&quot;&gt;园区B&lt;/font&gt;" style="html=1;dashed=1;rounded=1;fillColor=none;strokeColor=#858585;strokeWidth=3;" vertex="1" parent="1">
          <mxGeometry x="417.5" y="25" width="400" height="2610" as="geometry" />
        </mxCell>
      </root>
    </mxGraphModel>
  </diagram>
</mxfile>
